HIERARCHY
ROOT Hips
{
	OFFSET 0.000000 0.000000 0.000000
	CHANNELS 6 Xposition Yposition Zposition Xrotation Yrotation Zrotation
	JOINT LeftUpLeg_virtual
	{
		OFFSET 0.000000 0.000000 0.000000
		CHANNELS 3 Xrotation Yrotation Zrotation
		JOINT LeftUpLeg
		{
			OFFSET 11.394100 -6.187798 -0.413800
			CHANNELS 3 Xrotation Yrotation Zrotation
			JOINT LeftLeg
			{
				OFFSET 0.430247 -32.302673 3.732800
				CHANNELS 3 Xrotation Yrotation Zrotation
				JOINT LeftFoot
				{
					OFFSET -0.430247 -48.264931 -6.423300
					CHANNELS 3 Xrotation Yrotation Zrotation
					JOINT LeftToeBase
					{
						OFFSET 4.230900 -16.068199 23.438400
						CHANNELS 3 Xrotation Yrotation Zrotation
						JOINT LeftToe_End
						{
							OFFSET 4.510700 0.695400 19.974600
							CHANNELS 3 Xrotation Yrotation Zrotation
							End Site
							{
								OFFSET 0 0 0
							}
						}
					}
				}
			}
		}
	}
	JOINT RightUpLeg_virtual
	{
		OFFSET 0.000000 0.000000 0.000000
		CHANNELS 3 Xrotation Yrotation Zrotation
		JOINT RightUpLeg
		{
			OFFSET -11.333700 -6.187798 -0.413800
			CHANNELS 3 Xrotation Yrotation Zrotation
			JOINT RightLeg
			{
				OFFSET -0.430392 -32.302628 3.733000
				CHANNELS 3 Xrotation Yrotation Zrotation
				JOINT RightFoot
				{
					OFFSET 0.430392 -48.264973 -6.423500
					CHANNELS 3 Xrotation Yrotation Zrotation
					JOINT RightToeBase
					{
						OFFSET -4.230900 -16.068199 23.438400
						CHANNELS 3 Xrotation Yrotation Zrotation
						JOINT RightToe_End
						{
							OFFSET -4.510700 0.695400 19.974600
							CHANNELS 3 Xrotation Yrotation Zrotation
							End Site
							{
								OFFSET 0 0 0
							}
						}
					}
				}
			}
		}
	}
	JOINT Spine_virtual
	{
		OFFSET 0.000000 0.000000 0.000000
		CHANNELS 3 Xrotation Yrotation Zrotation
		JOINT Spine
		{
			OFFSET -0.002400 12.777504 0.315300
			CHANNELS 3 Xrotation Yrotation Zrotation
			JOINT Spine1
			{
				OFFSET -0.002067 5.816869 0.032633
				CHANNELS 3 Xrotation Yrotation Zrotation
				JOINT Spine1_split
				{
					OFFSET -0.002067 5.816869 0.032633
					CHANNELS 3 Xrotation Yrotation Zrotation
					JOINT Spine2
					{
						OFFSET -0.002067 5.816869 0.032633
						CHANNELS 3 Xrotation Yrotation Zrotation
						JOINT Neck_virtual
						{
							OFFSET 0.000000 0.000000 0.000000
							CHANNELS 3 Xrotation Yrotation Zrotation
							JOINT Neck
							{
								OFFSET -0.003700 21.199493 -0.826900
								CHANNELS 3 Xrotation Yrotation Zrotation
								JOINT Head
								{
									OFFSET 0.000000 20.442200 4.834800
									CHANNELS 3 Xrotation Yrotation Zrotation
									JOINT HeadTop_End
									{
										OFFSET 0.000000 34.668396 4.968400
										CHANNELS 3 Xrotation Yrotation Zrotation
										End Site
										{
											OFFSET 0 0 0
										}
									}
								}
							}
						}
						JOINT LeftShoulder_virtual
						{
							OFFSET 0.000000 0.000000 0.000000
							CHANNELS 3 Xrotation Yrotation Zrotation
							JOINT LeftShoulder
							{
								OFFSET 3.288150 8.794197 -1.372250
								CHANNELS 3 Xrotation Yrotation Zrotation
								JOINT LeftShoulder_split
								{
									OFFSET 3.288150 8.794197 -1.372250
									CHANNELS 3 Xrotation Yrotation Zrotation
									JOINT LeftArm
									{
										OFFSET 11.953299 -2.279007 -0.146200
										CHANNELS 3 Xrotation Yrotation Zrotation
										JOINT LeftForeArm
										{
											OFFSET 18.448900 0.000000 0.000000
											CHANNELS 3 Xrotation Yrotation Zrotation
											JOINT LeftHand
											{
												OFFSET 29.527798 0.000000 0.000000
												CHANNELS 3 Xrotation Yrotation Zrotation
												End Site
												{
													OFFSET 0 0 0
												}
											}
										}
									}
								}
							}
						}
						JOINT RightShoulder_virtual
						{
							OFFSET 0.000000 0.000000 0.000000
							CHANNELS 3 Xrotation Yrotation Zrotation
							JOINT RightShoulder
							{
								OFFSET -3.249400 8.794197 -1.372250
								CHANNELS 3 Xrotation Yrotation Zrotation
								JOINT RightShoulder_split
								{
									OFFSET -3.249400 8.794197 -1.372250
									CHANNELS 3 Xrotation Yrotation Zrotation
									JOINT RightArm
									{
										OFFSET -11.953299 -2.279007 -0.146200
										CHANNELS 3 Xrotation Yrotation Zrotation
										JOINT RightForeArm
										{
											OFFSET -18.448900 0.000000 0.000000
											CHANNELS 3 Xrotation Yrotation Zrotation
											JOINT RightHand
											{
												OFFSET -29.527802 0.000000 0.000000
												CHANNELS 3 Xrotation Yrotation Zrotation
												End Site
												{
													OFFSET 0 0 0
												}
											}
										}
									}
								}
							}
						}
					}
				}
			}
		}
	}
}
MOTION
Frames: 6
Frame Time: 0.03333333
4.971045 86.585175 -8.956795 0.000000 0.000000 0.000000 8.070355 0.795915 2.785469 -56.986324 -0.712967 17.236954 42.137558 -1.289444 5.530248 12.194127 2.989794 -24.895626 0.069552 -4.000989 1.221319 0.000000 0.000000 0.000000 8.571819 -0.236276 2.771955 -36.044008 -9.886903 -26.769137 37.581886 15.861185 -5.864929 -5.108155 -16.288741 38.360214 7.552635 11.825442 -18.891337 0.000000 0.000000 0.000000 8.189174 6.709624 1.334048 6.109912 0.480450 -0.746449 6.791197 -0.240145 -0.695940 0.051578 0.141869 -0.143926 0.000000 0.000000 0.000000 7.141379 3.087537 0.136396 7.269831 6.379057 -5.898521 -48.810704 -29.612838 -26.020688 0.000000 0.000000 0.000000 7.913187 1.010347 0.512346 2.706019 -25.484136 9.053562 3.357405 -6.335552 -4.079002 -74.937106 -33.647011 -23.978207 -10.596490 -12.850047 -1.806880 0.000000 0.000000 0.000000 6.322189 0.287972 -0.231934 -0.872659 23.067422 -12.504567 4.797863 -3.447686 5.468964 -35.848343 45.420239 19.840581 -14.045968 25.154516 5.129865 0.000000 0.000000 0.000000 
5.028119 86.229050 -8.820045 0.000000 0.000000 0.000000 8.110985 1.427511 2.514958 -57.913768 -1.112420 17.197450 42.891464 -1.344973 5.429806 12.012145 2.741732 -24.734366 -0.430685 -4.065729 1.343446 0.000000 0.000000 0.000000 8.655712 0.467623 2.473802 -35.746854 -9.923989 -26.678220 37.942838 15.866931 -6.018384 -5.462209 -16.617239 38.561882 7.494074 11.731243 -19.043921 0.000000 0.000000 0.000000 8.546464 6.871401 1.123807 5.951815 0.417362 -0.492962 6.714377 -0.186378 -0.781663 0.042973 0.202244 -0.134783 0.000000 0.000000 0.000000 7.045453 3.170542 0.210813 6.729583 6.331353 -5.109121 -48.129802 -27.935798 -27.908937 0.000000 0.000000 0.000000 7.774933 1.196192 0.485902 2.082681 -24.639679 8.078983 4.478499 -7.392350 -3.037882 -74.814395 -33.568788 -22.923448 -9.556545 -13.266918 -1.423875 0.000000 0.000000 0.000000 6.087195 0.406264 -0.244908 -1.473567 23.398573 -12.348389 6.251352 -3.931106 4.752611 -37.958431 45.285582 21.963143 -15.259157 26.696822 5.458653 0.000000 0.000000 0.000000 
5.084131 85.871651 -8.693905 0.000000 0.000000 0.000000 8.124145 1.883267 2.210246 -58.680949 -1.559484 17.147598 43.821667 -1.349640 5.352488 11.794880 2.611618 -24.249629 -0.994918 -4.165589 1.397103 0.000000 0.000000 0.000000 8.667933 1.060436 2.113582 -35.433095 -9.981354 -26.550443 38.358144 15.826380 -6.138144 -5.694584 -16.906183 38.682544 7.130624 11.695225 -18.879058 0.000000 0.000000 0.000000 8.906173 6.948800 0.833479 5.765720 0.481241 -0.131786 6.786382 -0.014648 -0.958515 0.081251 0.186519 -0.118533 0.000000 0.000000 0.000000 6.968258 3.339470 0.136317 5.947630 6.092880 -3.950317 -47.763783 -25.716835 -29.533625 0.000000 0.000000 0.000000 7.740693 1.394598 0.204312 1.366625 -23.674233 6.537498 5.363482 -8.052138 -1.602387 -75.009554 -34.109374 -23.097034 -8.246367 -12.243185 -0.992884 0.000000 0.000000 0.000000 6.003442 0.707059 -0.308875 -2.095755 23.578190 -11.859205 6.984901 -4.415056 4.001165 -39.033268 44.876935 23.657842 -16.627308 27.566700 5.881894 0.000000 0.000000 0.000000 
5.148721 85.538986 -8.584679 0.000000 0.000000 0.000000 8.064954 2.091016 1.917072 -59.221483 -1.991653 17.119999 44.855468 -1.370248 5.314961 11.640858 2.544568 -23.619552 -1.581478 -4.271118 1.349453 0.000000 0.000000 0.000000 8.582382 1.376901 1.762641 -35.230201 -10.098556 -26.458416 38.720612 15.742732 -6.202809 -5.805583 -17.100658 38.687312 6.697423 11.681373 -18.465746 0.000000 0.000000 0.000000 9.085010 6.910484 0.543608 5.620296 0.684656 0.240624 6.995414 0.270966 -1.179499 0.135773 0.133511 -0.113783 0.000000 0.000000 0.000000 6.986734 3.596815 -0.049316 5.020415 5.645018 -2.572066 -47.901411 -23.506210 -30.827591 0.000000 0.000000 0.000000 7.835311 1.607424 -0.248177 0.673805 -22.759650 4.822791 5.873110 -8.141691 -0.325185 -75.311237 -35.557705 -23.718541 -7.152382 -10.128783 -0.722628 0.000000 0.000000 0.000000 6.098250 1.113594 -0.374597 -2.653947 23.495714 -11.212027 7.114666 -4.820251 3.285545 -38.750651 44.705825 24.661308 -18.069907 27.802837 6.372244 0.000000 0.000000 0.000000 
5.240537 85.283493 -8.562218 0.000000 0.000000 0.000000 7.901949 2.028106 1.693173 -59.490183 -2.242111 17.154425 45.782362 -1.440927 5.296805 11.552275 2.487836 -22.953805 -2.187186 -4.383984 1.266154 0.000000 0.000000 0.000000 8.378089 1.353112 1.514146 -35.134746 -10.259470 -26.443115 38.887720 15.607571 -6.194946 -5.857505 -17.201352 38.536218 6.409978 11.667873 -17.961171 0.000000 0.000000 0.000000 8.951001 6.736491 0.357819 5.538356 1.004509 0.514238 7.324542 0.656298 -1.394905 0.181192 0.087031 -0.101936 0.000000 0.000000 0.000000 7.142257 3.930467 -0.287909 4.073128 5.050557 -1.160792 -48.407210 -21.705071 -31.753044 0.000000 0.000000 0.000000 8.013712 1.873450 -0.724035 0.097329 -22.154950 3.323659 6.358892 -8.079377 0.592256 -75.142231 -37.386133 -23.925845 -6.605605 -8.503556 -0.686365 0.000000 0.000000 0.000000 6.328636 1.554473 -0.444582 -3.095915 23.097348 -10.545735 6.730195 -5.106352 2.971099 -37.383189 44.825384 25.126143 -19.522818 28.085388 7.037398 0.000000 0.000000 0.000000 
5.332991 85.159828 -8.652054 0.000000 0.000000 0.000000 7.689407 1.735519 1.567931 -59.533677 -2.218204 17.272145 46.401481 -1.556895 5.272568 11.491828 2.428644 -22.333868 -2.676623 -4.502938 1.214943 0.000000 0.000000 0.000000 8.103681 1.076324 1.395662 -35.047705 -10.379714 -26.462357 38.784925 15.437076 -6.128135 -5.803532 -17.208088 38.323833 6.272797 11.673510 -17.522710 0.000000 0.000000 0.000000 8.569572 6.461876 0.307235 5.447983 1.390134 0.612137 7.720618 1.094251 -1.554005 0.178498 0.036573 -0.084834 0.000000 0.000000 0.000000 7.442959 4.316681 -0.518942 3.206765 4.366739 0.144370 -48.962611 -20.741615 -32.338067 0.000000 0.000000 0.000000 8.202079 2.201181 -1.108790 -0.335816 -21.995772 2.299976 6.970263 -8.140358 1.290627 -74.445995 -38.639777 -23.288976 -6.548236 -8.573064 -0.797675 0.000000 0.000000 0.000000 6.642494 1.979246 -0.486088 -3.451637 22.345222 -10.016333 5.989541 -5.253438 2.786354 -35.402056 44.977769 25.178606 -20.902030 28.973656 7.924444 0.000000 0.000000 0.000000 
